<mxfile host="65bd71144e">
    <diagram id="ntT5SESBepkQPNVjgoTv" name="Page-1">
        <mxGraphModel dx="1262" dy="776" grid="1" gridSize="10" guides="1" tooltips="1" connect="1" arrows="1" fold="1" page="1" pageScale="1" pageWidth="827" pageHeight="1169" math="0" shadow="0">
            <root>
                <mxCell id="0"/>
                <mxCell id="1" parent="0"/>
                <mxCell id="13" value="" style="rounded=1;whiteSpace=wrap;html=1;" vertex="1" parent="1">
                    <mxGeometry x="100" y="50" width="390" height="650" as="geometry"/>
                </mxCell>
                <mxCell id="4" value="" style="group" vertex="1" connectable="0" parent="1">
                    <mxGeometry x="150" y="110" width="290" height="70" as="geometry"/>
                </mxCell>
                <mxCell id="5" value="项目存储 / 增删改查" style="rounded=0;whiteSpace=wrap;html=1;strokeColor=#000000;fillColor=#FFFFFF;fontColor=#000000;" vertex="1" parent="4">
                    <mxGeometry y="10" width="290" height="60" as="geometry"/>
                </mxCell>
                <mxCell id="6" value="对外站点服务" style="rounded=0;whiteSpace=wrap;html=1;strokeColor=#000000;fillColor=#FFFFFF;fontColor=#000000;" vertex="1" parent="4">
                    <mxGeometry x="85" width="120" height="20" as="geometry"/>
                </mxCell>
                <mxCell id="7" value="" style="group;" vertex="1" connectable="0" parent="1">
                    <mxGeometry x="150" y="390" width="290" height="70" as="geometry"/>
                </mxCell>
                <mxCell id="8" value="最短路径 / 模式匹配 / 社区发现 /..." style="rounded=0;whiteSpace=wrap;html=1;strokeColor=#666666;fillColor=#f5f5f5;fontColor=#333333;" vertex="1" parent="7">
                    <mxGeometry y="10" width="290" height="60" as="geometry"/>
                </mxCell>
                <mxCell id="9" value="图算法服务" style="rounded=0;whiteSpace=wrap;html=1;strokeColor=#000000;fillColor=#FFFFFF;fontColor=#000000;" vertex="1" parent="7">
                    <mxGeometry x="85" width="120" height="20" as="geometry"/>
                </mxCell>
                <mxCell id="10" value="" style="group;" vertex="1" connectable="0" parent="1">
                    <mxGeometry x="150" y="480" width="290" height="70" as="geometry"/>
                </mxCell>
                <mxCell id="11" value="提取特征 / 打标 / 计算&amp;nbsp;" style="rounded=0;whiteSpace=wrap;html=1;strokeColor=#666666;fillColor=#f5f5f5;fontColor=#333333;" vertex="1" parent="10">
                    <mxGeometry y="10" width="290" height="60" as="geometry"/>
                </mxCell>
                <mxCell id="12" value="图智能推荐服务" style="rounded=0;whiteSpace=wrap;html=1;strokeColor=#000000;fillColor=#FFFFFF;fontColor=#000000;" vertex="1" parent="10">
                    <mxGeometry x="85" width="120" height="20" as="geometry"/>
                </mxCell>
                <mxCell id="16" value="" style="group" vertex="1" connectable="0" parent="1">
                    <mxGeometry x="150" y="570" width="290" height="70" as="geometry"/>
                </mxCell>
                <mxCell id="17" value="存储 / 构图 / 解析 / 校验" style="rounded=0;whiteSpace=wrap;html=1;strokeColor=#666666;fillColor=#f5f5f5;fontColor=#333333;" vertex="1" parent="16">
                    <mxGeometry y="10" width="290" height="60" as="geometry"/>
                </mxCell>
                <mxCell id="18" value="图存储服务" style="rounded=0;whiteSpace=wrap;html=1;strokeColor=#000000;fillColor=#FFFFFF;fontColor=#000000;" vertex="1" parent="16">
                    <mxGeometry x="85" width="120" height="20" as="geometry"/>
                </mxCell>
                <mxCell id="19" value="" style="group" vertex="1" connectable="0" parent="1">
                    <mxGeometry x="150" y="290" width="290" height="70" as="geometry"/>
                </mxCell>
                <mxCell id="20" value="数据下钻 / 数据打标 / 数据查询" style="rounded=0;whiteSpace=wrap;html=1;strokeColor=#000000;fillColor=#FFFFFF;fontColor=#000000;" vertex="1" parent="19">
                    <mxGeometry y="10" width="290" height="60" as="geometry"/>
                </mxCell>
                <mxCell id="21" value="图组件服务" style="rounded=0;whiteSpace=wrap;html=1;strokeColor=#000000;fillColor=#FFFFFF;fontColor=#000000;" vertex="1" parent="19">
                    <mxGeometry x="85" width="120" height="20" as="geometry"/>
                </mxCell>
                <mxCell id="22" value="IndexDB" style="rounded=1;whiteSpace=wrap;html=1;" vertex="1" parent="1">
                    <mxGeometry x="580" y="120" width="120" height="60" as="geometry"/>
                </mxCell>
                <mxCell id="23" style="edgeStyle=none;html=1;entryX=0;entryY=0.5;entryDx=0;entryDy=0;" edge="1" parent="1" source="5" target="22">
                    <mxGeometry relative="1" as="geometry">
                        <mxPoint x="590" y="80" as="targetPoint"/>
                        <Array as="points">
                            <mxPoint x="440" y="150"/>
                        </Array>
                    </mxGeometry>
                </mxCell>
                <mxCell id="25" value="" style="group" vertex="1" connectable="0" parent="1">
                    <mxGeometry x="150" y="200" width="290" height="70" as="geometry"/>
                </mxCell>
                <mxCell id="26" value="权限 / 分享 / 资产研发" style="rounded=0;whiteSpace=wrap;html=1;strokeColor=#000000;fillColor=#FFFFFF;fontColor=#000000;" vertex="1" parent="25">
                    <mxGeometry y="10" width="290" height="60" as="geometry"/>
                </mxCell>
                <mxCell id="27" value="对内站点服务" style="rounded=0;whiteSpace=wrap;html=1;strokeColor=#000000;fillColor=#FFFFFF;fontColor=#000000;" vertex="1" parent="25">
                    <mxGeometry x="85" width="120" height="20" as="geometry"/>
                </mxCell>
                <mxCell id="28" value="Chair + AntBUC" style="rounded=1;whiteSpace=wrap;html=1;" vertex="1" parent="1">
                    <mxGeometry x="580" y="210" width="120" height="60" as="geometry"/>
                </mxCell>
                <mxCell id="29" style="edgeStyle=none;html=1;entryX=0;entryY=0.5;entryDx=0;entryDy=0;" edge="1" parent="1" source="26" target="28">
                    <mxGeometry relative="1" as="geometry"/>
                </mxCell>
                <mxCell id="31" value="" style="edgeStyle=none;html=1;entryX=0;entryY=0.5;entryDx=0;entryDy=0;" edge="1" parent="1" source="20" target="32">
                    <mxGeometry relative="1" as="geometry">
                        <mxPoint x="685" y="320" as="targetPoint"/>
                    </mxGeometry>
                </mxCell>
                <mxCell id="40" value="" style="edgeStyle=none;html=1;" edge="1" parent="1" source="32" target="39">
                    <mxGeometry relative="1" as="geometry"/>
                </mxCell>
                <mxCell id="32" value="ServerSDK" style="rounded=1;whiteSpace=wrap;html=1;" vertex="1" parent="1">
                    <mxGeometry x="580" y="300" width="120" height="60" as="geometry"/>
                </mxCell>
                <mxCell id="33" value="GraphScope" style="rounded=1;whiteSpace=wrap;html=1;" vertex="1" parent="1">
                    <mxGeometry x="580" y="395" width="120" height="60" as="geometry"/>
                </mxCell>
                <mxCell id="34" style="edgeStyle=none;html=1;entryX=0;entryY=0.5;entryDx=0;entryDy=0;" edge="1" parent="1" source="8" target="33">
                    <mxGeometry relative="1" as="geometry"/>
                </mxCell>
                <mxCell id="38" value="G6VP &lt;br&gt;Server" style="rounded=0;whiteSpace=wrap;html=1;" vertex="1" parent="1">
                    <mxGeometry x="235" y="20" width="120" height="60" as="geometry"/>
                </mxCell>
                <mxCell id="39" value="" style="whiteSpace=wrap;html=1;rounded=1;" vertex="1" parent="1">
                    <mxGeometry x="750" y="210" width="240" height="260" as="geometry"/>
                </mxCell>
                <mxCell id="41" value="api/NeighborsQuery/findNode" style="rounded=1;whiteSpace=wrap;html=1;" vertex="1" parent="1">
                    <mxGeometry x="780" y="230" width="190" height="30" as="geometry"/>
                </mxCell>
                <mxCell id="42" value="PropertiesPanel" style="rounded=1;whiteSpace=wrap;html=1;" vertex="1" parent="1">
                    <mxGeometry x="800" y="270" width="120" height="30" as="geometry"/>
                </mxCell>
                <mxCell id="45" value="" style="edgeStyle=none;html=1;" edge="1" parent="1" source="43" target="44">
                    <mxGeometry relative="1" as="geometry"/>
                </mxCell>
                <mxCell id="43" value="NeighborsQuery" style="rounded=1;whiteSpace=wrap;html=1;" vertex="1" parent="1">
                    <mxGeometry x="1241" y="230" width="120" height="30" as="geometry"/>
                </mxCell>
                <mxCell id="46" style="edgeStyle=none;html=1;entryX=1;entryY=0.5;entryDx=0;entryDy=0;" edge="1" parent="1" source="44" target="41">
                    <mxGeometry relative="1" as="geometry"/>
                </mxCell>
                <mxCell id="44" value="serviceId:&quot;findNode&quot;,&lt;br&gt;service:()=&amp;gt;{}" style="whiteSpace=wrap;html=1;rounded=1;" vertex="1" parent="1">
                    <mxGeometry x="1060" y="227.5" width="120" height="35" as="geometry"/>
                </mxCell>
            </root>
        </mxGraphModel>
    </diagram>
</mxfile>